<svg width="107" height="60" viewBox="0 0 107 60" fill="none" xmlns="http://www.w3.org/2000/svg">
<path d="M23.4862 44L16.8462 32.6H12.4462V44H8.80625V16.12H17.8062C19.9129 16.12 21.6862 16.48 23.1262 17.2C24.5929 17.92 25.6862 18.8933 26.4062 20.12C27.1262 21.3467 27.4862 22.7467 27.4862 24.32C27.4862 26.24 26.9262 27.9333 25.8062 29.4C24.7129 30.8667 23.0596 31.84 20.8462 32.32L27.8462 44H23.4862ZM12.4462 29.68H17.8062C19.7796 29.68 21.2596 29.2 22.2462 28.24C23.2329 27.2533 23.7262 25.9467 23.7262 24.32C23.7262 22.6667 23.2329 21.3867 22.2462 20.48C21.2862 19.5733 19.8062 19.12 17.8062 19.12H12.4462V29.68Z" fill="#6798FE"/>
<path d="M43.5022 40.04C45.8222 40.04 47.7555 39.2667 49.3022 37.72L51.9422 40.8C51.0089 41.9467 49.8089 42.8133 48.3422 43.4C46.8755 43.9867 45.2222 44.28 43.3822 44.28C41.0355 44.28 38.9689 43.8133 37.1822 42.88C35.3955 41.9467 34.0089 40.6533 33.0222 39C32.0622 37.32 31.5822 35.4267 31.5822 33.32C31.5822 31.24 32.0489 29.3733 32.9822 27.72C33.9422 26.04 35.2489 24.7333 36.9022 23.8C38.5822 22.8667 40.4755 22.4 42.5822 22.4C44.5822 22.4 46.3955 22.84 48.0222 23.72C49.6755 24.5733 50.9822 25.8133 51.9422 27.44C52.9022 29.04 53.3822 30.92 53.3822 33.08L37.0222 36.28C37.5289 37.5067 38.3422 38.44 39.4622 39.08C40.5822 39.72 41.9289 40.04 43.5022 40.04ZM42.5822 26.4C40.7422 26.4 39.2489 27 38.1022 28.2C36.9822 29.4 36.4222 31.0133 36.4222 33.04V33.08L48.5022 30.76C48.1555 29.4533 47.4489 28.4 46.3822 27.6C45.3422 26.8 44.0755 26.4 42.5822 26.4Z" fill="#E06AFF"/>
<path d="M75.9073 46.688C76.8572 45.8291 76.8572 44.3376 75.9073 43.4787L72.3827 40.2917C69.5462 37.7269 69.5462 33.2731 72.3827 30.7083L75.9073 27.5213C76.8572 26.6624 76.8572 25.1709 75.9073 24.312C75.0834 23.567 73.8292 23.567 73.0054 24.312L68.2379 28.6228C64.1669 32.3039 64.1669 38.6961 68.2379 42.3772L73.0054 46.688C73.8292 47.433 75.0834 47.433 75.9073 46.688ZM91.4375 46.688C90.4876 45.8291 90.4876 44.3376 91.4375 43.4787L94.9621 40.2917C97.7986 37.7269 97.7986 33.2731 94.9621 30.7083L91.4375 27.5213C90.4876 26.6624 90.4876 25.1709 91.4375 24.312C92.2614 23.567 93.5156 23.567 94.3395 24.312L99.107 28.6228C103.178 32.3039 103.178 38.6961 99.107 42.3772L94.3395 46.688C93.5156 47.433 92.2614 47.433 91.4375 46.688Z" fill="#6798FE"/>
</svg>
